<svg id="Layer_1" data-name="Layer 1" xmlns="http://www.w3.org/2000/svg" viewBox="0 0 524 1153"><defs><style>.cls-1{fill:#f2d12c;}.cls-1,.cls-2,.cls-3,.cls-4{stroke:#000;stroke-miterlimit:10;stroke-width:7px;}.cls-2{fill:#fff;}.cls-3{fill:#ba9b19;}.cls-4{fill:#d81616;}</style></defs><title>ruler</title><rect class="cls-1" x="3.5" y="276.52" width="517" height="872.98"/><rect x="6.5" y="600.72" width="413.54" height="64.51"/><line class="cls-2" x1="3.5" y1="362.72" x2="287.95" y2="362.72"/><line class="cls-2" x1="6.5" y1="501.72" x2="290.95" y2="501.72"/><line class="cls-2" x1="6.5" y1="903.23" x2="290.95" y2="903.23"/><line class="cls-2" x1="3.5" y1="1039.23" x2="287.95" y2="1039.23"/><polygon class="cls-3" points="5.76 135.77 96.08 45.85 181.97 135.77 258.39 45.85 356.92 135.77 427.66 45.85 520.5 135.77 520.5 272.58 4.71 272.58 5.76 135.77"/><circle class="cls-1" cx="95.13" cy="24.67" r="21.17"/><polygon class="cls-4" points="65.79 169.51 65.79 205.65 95.13 223.72 124.47 205.65 124.47 169.51 95.13 151.45 65.79 169.51"/><circle class="cls-1" cx="258.08" cy="24.67" r="21.17"/><circle class="cls-1" cx="426.08" cy="24.67" r="21.17"/><polygon class="cls-4" points="228.74 169.51 228.74 205.65 258.08 223.72 287.41 205.65 287.41 169.51 258.08 151.45 228.74 169.51"/><polygon class="cls-4" points="396.74 169.51 396.74 205.65 426.08 223.72 455.41 205.65 455.41 169.51 426.08 151.45 396.74 169.51"/><rect x="6.5" y="738.22" width="413.54" height="64.51"/></svg>